<svg xmlns="http://www.w3.org/2000/svg" xmlns:xlink="http://www.w3.org/1999/xlink" width="300" height="300" viewBox="410985.54440000036 4319349.0244 33813.601199999684 15036.111199999228" preserveAspectRatio="xMinYMin meet"><g transform="matrix(1,0,0,-1,0,8653734.16)"><path fill-rule="evenodd" fill="#66cc99" stroke="#555555" stroke-width="225.42400799999788" opacity="0.6" d="M 428991.2000000002,4325470.5 L 428992.0999999996,4325242.0 L 429527.86000000034,4325380.289999999 L 430219.2999999998,4325238.699999999 L 431557.2000000002,4325452.1 L 431573.2000000002,4325479.5 L 431613.0999999996,4325503.5 L 431648.2000000002,4325520.0 L 431683.2999999998,4325539.5 L 431702.0,4325558.0 L 431725.2000000002,4325572.0 L 431863.2000000002,4325663.699999999 L 431879.2000000002,4325677.0 L 431919.5,4325680.0 L 431934.2000000002,4325702.0 L 431948.2000000002,4325717.1 L 431970.7000000002,4325731.0 L 431991.4000000004,4325755.0 L 432012.7000000002,4325777.0 L 432041.2000000002,4325792.0 L 432068.4000000004,4325802.5 L 432140.2000000002,4325783.0 L 432197.4000000004,4325759.0 L 432247.2999999998,4325729.0 L 432307.7000000002,4325697.5 L 432364.9000000004,4325669.5 L 432422.0999999996,4325643.5 L 432469.4000000004,4325616.0 L 432507.5,4325602.5 L 432537.7999999998,4325596.5 L 432563.5999999996,4325600.5 L 432588.7999999998,4325614.199999999 L 432620.7000000002,4325638.5 L 432643.9000000004,4325652.9 L 432670.4000000004,4325664.0 L 432742.5999999996,4325680.0 L 432787.9000000004,4325670.5 L 432841.4000000004,4325666.0 L 432896.7000000002,4325654.5 L 432931.5999999996,4325639.5 L 432966.2999999998,4325607.0 L 433009.5999999996,4325576.0 L 433087.0999999996,4325534.5 L 433121.2999999998,4325521.5 L 433161.4000000004,4325504.0 L 433181.7000000002,4325477.5 L 433201.7999999998,4325448.199999999 L 433225.0,4325377.0 L 433228.0,4325340.5 L 433226.9000000004,4325293.0 L 433229.9000000004,4325256.0 L 433234.9000000004,4325217.5 L 433245.7999999998,4325183.199999999 L 433257.2000000002,4325129.0 L 433266.0999999996,4325080.0 L 433268.9000000004,4325033.0 L 433275.2000000002,4324989.1 L 433272.9000000004,4324943.5 L 433265.7000000002,4324881.0 L 433257.2999999998,4324832.5 L 433250.9000000004,4324781.5 L 433252.0,4324746.5 L 433261.7000000002,4324723.5 L 433268.7000000002,4324687.5 L 433276.7999999998,4324638.0 L 433277.7000000002,4324589.0 L 433285.4000000004,4324556.0 L 433296.2000000002,4324516.5 L 433316.2999999998,4324468.5 L 433335.2000000002,4324439.0 L 433365.7999999998,4324395.5 L 433391.2000000002,4324351.0 L 433439.9000000004,4324269.5 L 433479.2000000002,4324235.0 L 433464.9000000004,4324320.5 L 433463.4000000004,4324379.0 L 433479.2000000002,4324445.5 L 433497.5,4324502.5 L 433527.0,4324565.5 L 433544.5,4324600.5 L 433575.0999999996,4324634.0 L 433613.9000000004,4324695.0 L 433632.7999999998,4324746.5 L 433642.5999999996,4324801.699999999 L 433657.5999999996,4324860.0 L 433707.2999999998,4324970.5 L 433730.9000000004,4325026.5 L 433750.5,4325075.5 L 433767.5,4325135.0 L 433774.4000000004,4325169.5 L 433770.9000000004,4325217.0 L 433781.7999999998,4325266.199999999 L 433796.0,4325308.5 L 433805.0,4325353.1 L 433830.4000000004,4325402.6 L 433853.9000000004,4325438.0 L 433867.9000000004,4325464.5 L 433870.2999999998,4325512.0 L 433864.9000000004,4325571.0 L 433855.2000000002,4325607.0 L 433849.0,4325643.5 L 433853.2000000002,4325672.0 L 433866.7000000002,4325695.0 L 433876.7000000002,4325730.699999999 L 433878.4000000004,4325773.5 L 433870.2000000002,4325817.0 L 433857.2999999998,4325848.5 L 433861.5999999996,4325888.5 L 433871.2000000002,4325939.0 L 433876.7000000002,4325975.5 L 433905.0,4326025.0 L 433917.2000000002,4326068.5 L 433919.5999999996,4326113.0 L 433916.7000000002,4326165.6 L 433904.5999999996,4326219.5 L 433885.2999999998,4326276.0 L 433864.5999999996,4326322.5 L 433851.2000000002,4326373.0 L 433839.2000000002,4326440.5 L 433821.2999999998,4326510.0 L 433803.2999999998,4326570.5 L 433795.0999999996,4326615.0 L 433773.2999999998,4326684.0 L 433761.9000000004,4326744.5 L 433751.7000000002,4326785.5 L 433728.2000000002,4326835.0 L 433701.9000000004,4326905.0 L 433673.5,4326984.0 L 433665.9000000004,4327026.0 L 433618.2000000002,4327156.199999999 L 433593.5,4327201.5 L 433575.7999999998,4327218.0 L 433556.7000000002,4327224.0 L 433526.4000000004,4327227.1 L 433496.7000000002,4327229.0 L 433467.7999999998,4327239.5 L 433440.2000000002,4327253.5 L 433395.7000000002,4327301.5 L 433360.7000000002,4327365.0 L 433328.7000000002,4327410.4 L 433291.4000000004,4327449.5 L 433259.5,4327489.0 L 433222.2999999998,4327542.9 L 433203.4000000004,4327575.5 L 433192.9000000004,4327660.5 L 433177.7999999998,4327752.5 L 433171.0,4327787.5 L 433158.5,4327801.5 L 433113.0,4327874.9 L 433150.7000000002,4327884.5 L 433198.2000000002,4327892.0 L 433251.5999999996,4327881.5 L 433285.7000000002,4327856.1 L 433318.4000000004,4327823.5 L 433351.0,4327783.5 L 433434.7000000002,4327689.0 L 433474.7000000002,4327664.0 L 433508.7999999998,4327644.5 L 433542.2999999998,4327608.0 L 433708.5,4327453.0 L 433821.2000000002,4327358.1 L 433837.4000000004,4327339.5 L 433863.0,4327307.0 L 433900.9000000004,4327267.0 L 433951.2999999998,4327220.5 L 433971.5999999996,4327200.5 L 433995.2000000002,4327180.5 L 434005.0,4327161.4 L 434016.5,4327120.5 L 434036.2000000002,4327116.0 L 434051.2000000002,4327093.1 L 434061.0,4327075.0 L 434125.2999999998,4327121.0 L 434155.7000000002,4327120.5 L 434208.4000000004,4327109.5 L 434272.7999999998,4327094.4 L 434318.5,4327094.0 L 434369.2000000002,4327090.5 L 434423.9000000004,4327076.5 L 434490.5,4327068.0 L 434524.7000000002,4327056.0 L 434560.0999999996,4327034.0 L 434590.5,4327030.0 L 434623.0,4327050.5 L 434656.7999999998,4327075.0 L 434690.5999999996,4327095.5 L 434721.0999999996,4327102.0 L 434755.5999999996,4327127.0 L 434795.2999999998,4327141.5 L 434850.0999999996,4327150.0 L 434900.5,4327163.5 L 434945.2999999998,4327170.0 L 434983.0999999996,4327187.5 L 435015.4000000004,4327206.0 L 435040.0,4327216.5 L 435074.5,4327229.5 L 435116.2999999998,4327251.5 L 435167.2999999998,4327289.5 L 435211.0999999996,4327316.5 L 435281.2999999998,4327351.5 L 435359.5,4327386.5 L 435392.0999999996,4327414.5 L 435422.2000000002,4327465.5 L 435438.2000000002,4327487.5 L 435474.5999999996,4327507.5 L 435535.4000000004,4327511.5 L 435583.5,4327511.5 L 435674.5999999996,4327514.5 L 435747.2000000002,4327513.5 L 435839.4000000004,4327498.5 L 435931.0999999996,4327488.5 L 436008.0999999996,4327468.5 L 436049.4000000004,4327431.5 L 436079.0,4327418.5 L 436098.0999999996,4327420.5 L 436131.2000000002,4327432.5 L 436174.2000000002,4327444.5 L 436203.2000000002,4327437.5 L 436257.2000000002,4327427.5 L 436308.5999999996,4327420.5 L 436347.5,4327411.5 L 436417.0,4327361.5 L 436453.0999999996,4327337.5 L 436494.5,4327319.5 L 436533.2000000002,4327289.5 L 436553.2999999998,4327263.5 L 436585.9000000004,4327202.5 L 436627.2000000002,4327165.0 L 436665.2999999998,4327139.5 L 436696.2000000002,4327134.5 L 436709.2999999998,4327122.0 L 436720.2000000002,4327073.5 L 436699.4000000004,4327039.699999999 L 436685.4000000004,4327022.5 L 436679.2999999998,4326994.5 L 436685.0,4326968.5 L 436706.5,4326936.5 L 436757.2999999998,4326929.0 L 436792.0999999996,4326916.5 L 436787.0999999996,4326948.5 L 436801.2000000002,4326972.5 L 436824.2999999998,4326978.5 L 436849.4000000004,4326981.5 L 436871.2000000002,4326982.5 L 436892.4000000004,4326984.5 L 436912.0999999996,4326983.5 L 436941.2000000002,4326984.5 L 436961.0,4326983.5 L 436993.2000000002,4326978.5 L 437010.4000000004,4326972.5 L 437052.7000000002,4326967.9 L 437083.2999999998,4326953.199999999 L 437226.2000000002,4326909.300000001 L 437701.7999999998,4326760.300000001 L 437864.7000000002,4326710.300000001 L 437972.4000000004,4326674.6 L 437997.2999999998,4326669.199999999 L 437986.4000000004,4326620.5 L 438129.53000000026,4326555.65 L 438140.54000000004,4326532.27 L 438153.16000000015,4326508.4 L 438182.29000000004,4326490.51 L 438197.4299999997,4326478.82 L 438213.8300000001,4326469.539999999 L 438233.9000000004,4326463.289999999 L 438260.70999999996,4326461.26 L 438288.70999999996,4326454.949999999 L 438314.88999999966,4326450.49 L 438325.1900000004,4326442.48 L 438323.88999999966,4326431.52 L 438321.4199999999,4326427.880000001 L 438296.96999999974,4326418.92 L 438256.5800000001,4326399.109999999 L 438228.9900000002,4326377.98 L 438213.0700000003,4326368.35 L 438184.2000000002,4326339.91 L 438162.63999999966,4326311.43 L 438159.54000000004,4326302.9 L 438170.16000000015,4326255.890000001 L 438192.91000000015,4326200.859999999 L 438221.1299999999,4326143.949999999 L 438220.9199999999,4326116.52 L 438208.54000000004,4326091.630000001 L 438174.8099999996,4326066.26 L 438160.7400000002,4326058.449999999 L 438098.4199999999,4326041.24 L 438066.73000000045,4326043.3100000005 L 438002.6799999997,4326037.699999999 L 437985.5499999998,4326029.289999999 L 437972.0599999996,4326019.029999999 L 437953.5800000001,4325993.550000001 L 437925.2599999998,4325957.1899999995 L 437915.9400000004,4325933.5 L 437898.6299999999,4325901.32 L 437890.5599999996,4325883.07 L 437886.86000000034,4325877.01 L 437870.6200000001,4325824.720000001 L 437859.1900000004,4325766.27 L 437853.4000000004,4325724.859999999 L 437848.96999999974,4325703.5600000005 L 437851.7599999998,4325669.4 L 437861.73000000045,4325616.27 L 437880.9500000002,4325579.550000001 L 437897.1200000001,4325541.640000001 L 437904.3300000001,4325526.960000001 L 437913.9000000004,4325502.49 L 437880.01999999955,4325455.210000001 L 437875.5800000001,4325433.289999999 L 437876.0800000001,4325418.66 L 437859.98000000045,4325385.25 L 437859.8300000001,4325365.140000001 L 437848.11000000034,4325347.539999999 L 437812.66000000015,4325334.390000001 L 437759.3499999996,4325299.4399999995 L 437737.1699999999,4325267.9 L 437715.5599999996,4325232.1 L 437703.79000000004,4325206.58 L 437690.5099999998,4325143.890000001 L 437693.8799999999,4325106.07 L 437693.75,4325087.779999999 L 437680.03000000026,4325048.25 L 437668.28000000026,4325027.01 L 437646.9500000002,4324946.699999999 L 437645.6299999999,4324933.300000001 L 437641.1699999999,4324907.119999999 L 437644.0700000003,4324888.1899999995 L 437655.33999999985,4324847.26 L 437655.8200000003,4324829.58 L 437653.9500000002,4324823.5 L 437619.6299999999,4324800.59 L 437597.5099999998,4324777.6 L 437592.5800000001,4324768.49 L 437581.48000000045,4324752.109999999 L 437567.9400000004,4324735.75 L 437559.28000000026,4324719.970000001 L 437548.6299999999,4324681.640000001 L 437528.1500000004,4324633.029999999 L 437520.03000000026,4324607.48 L 437508.8700000001,4324583.800000001 L 437498.98000000045,4324565.58 L 437478.2999999998,4324542.4 L 437429.0999999996,4324316.199999999 L 437379.2999999998,4324107.4 L 437367.2999999998,4324054.300000001 L 437355.2000000002,4323991.699999999 L 437344.5999999996,4323937.800000001 L 437337.7999999998,4323913.6 L 437327.2999999998,4323895.9 L 437334.0,4323866.5 L 437327.0999999996,4323739.5 L 437334.2999999998,4323650.5 L 437355.2999999998,4323565.5 L 437371.0,4323542.5 L 437412.2999999998,4323501.5 L 437413.4000000004,4323471.5 L 437382.2000000002,4323362.5 L 437389.2999999998,4323344.0 L 437402.2000000002,4323303.0 L 437417.2000000002,4323294.5 L 437419.2999999998,4323223.5 L 437430.2999999998,4323193.0 L 437448.5,4323160.699999999 L 437474.2000000002,4323155.0 L 437502.0999999996,4323164.6 L 437560.9000000004,4323174.5 L 437652.0999999996,4323185.5 L 437700.2000000002,4323182.1 L 437732.5999999996,4323169.0 L 437838.2000000002,4323091.5 L 437923.2000000002,4322995.5 L 437997.2999999998,4322849.0 L 438025.0,4322753.5 L 438040.0999999996,4322729.699999999 L 438207.4000000004,4322542.5 L 438222.5,4322513.5 L 438253.9000000004,4322478.5 L 438335.5,4322443.5 L 438390.0999999996,4322424.5 L 438444.5999999996,4322368.5 L 438483.4000000004,4322360.0 L 438500.5,4322350.5 L 438572.4000000004,4322343.5 L 438624.9000000004,4322309.0 L 438696.0,4322274.5 L 438770.2000000002,4322218.0 L 438821.5,4322192.5 L 438897.9000000004,4322175.5 L 438952.0999999996,4322181.5 L 439030.0999999996,4322196.5 L 439077.0,4322199.699999999 L 439122.0999999996,4322217.0 L 439170.2000000002,4322217.5 L 439213.2000000002,4322220.9 L 439303.2000000002,4322244.0 L 439385.2999999998,4322280.5 L 439426.4000000004,4322302.6 L 439512.5,4322326.5 L 439540.2999999998,4322344.5 L 439572.2000000002,4322367.5 L 439638.2000000002,4322369.6 L 439715.4000000004,4322362.5 L 439801.5,4322347.6 L 439889.4000000004,4322320.1 L 440021.9000000004,4322295.5 L 440150.5,4322266.5 L 440197.2999999998,4322258.5 L 440308.0,4322230.0 L 440487.2999999998,4322190.5 L 440580.2000000002,4322168.5 L 440675.7999999998,4322153.5 L 440804.4000000004,4322136.0 L 440908.0,4322119.5 L 440950.2000000002,4322117.5 L 440979.0,4322076.5 L 441042.9000000004,4322062.5 L 441139.7999999998,4322046.5 L 441180.0,4322033.699999999 L 441255.0,4321993.0 L 441291.0999999996,4321959.5 L 441308.2000000002,4321960.0 L 441339.2999999998,4321955.9 L 441361.0,4321950.699999999 L 441425.2000000002,4321883.699999999 L 441458.0,4321858.0 L 441544.9000000004,4321813.5 L 441590.2000000002,4321791.5 L 441649.9000000004,4321741.5 L 441718.4000000004,4321708.5 L 441770.9000000004,4321663.0 L 441807.0,4321635.5 L 441851.0,4321612.0 L 441929.9000000004,4321564.0 L 441978.5999999996,4321540.5 L 442016.7999999998,4321527.5 L 442107.7999999998,4321515.5 L 442152.0999999996,4321501.0 L 442200.7000000002,4321474.1 L 442222.0499999998,4321458.66 L 442236.7999999998,4321448.0 L 442256.5,4321438.5 L 442257.2999999998,4321439.539999999 L 442285.25,4321427.140000001 L 442311.3700000001,4321414.140000001 L 442327.78000000026,4321407.92 L 442350.25,4321396.789999999 L 442373.9900000002,4321392.33 L 442464.1299999999,4321379.460000001 L 442501.88999999966,4321375.51 L 442520.79000000004,4321375.369999999 L 442563.3300000001,4321357.99 L 442582.63999999966,4321332.85 L 442623.6699999999,4321274.619999999 L 442632.16000000015,4321268.460000001 L 442659.5099999998,4321259.109999999 L 442677.71999999974,4321246.779999999 L 442716.1200000001,4321247.109999999 L 442761.21999999974,4321245.550000001 L 442781.21999999974,4321229.550000001 L 442801.29000000004,4321222.6899999995 L 442838.86000000034,4321193.140000001 L 442869.1799999997,4321171.58 L 442886.79000000004,4321162.3100000005 L 442942.0,4321128.35 L 442961.48000000045,4321123.9399999995 L 443012.6699999999,4321119.9 L 443066.2999999998,4321118.890000001 L 443099.79000000004,4321112.529999999 L 443119.3200000003,4321115.43 L 443169.5800000001,4321151.630000001 L 443184.88999999966,4321161.279999999 L 443195.28000000026,4321164.25 L 443218.38999999966,4321157.359999999 L 443237.91000000015,4321158.4399999995 L 443265.4000000004,4321166.77 L 443312.33999999985,4321166.41 L 443336.0599999996,4321160.75 L 443356.0599999996,4321144.140000001 L 443368.76999999955,4321131.24 L 443400.33999999985,4321113.93 L 443423.3799999999,4321097.91 L 443454.3799999999,4321086.1 L 443505.5599999996,4321081.43 L 443532.4199999999,4321086.720000001 L 443546.79000000004,4320601.380000001 L 442218.0,4320614.5 L 437433.0,4320636.0 L 436472.0,4320656.0 L 435806.5,4320670.0 L 435025.5,4320686.5 L 434214.0,4320701.0 L 431019.5,4320750.5 L 428492.0,4320767.0 L 427769.0999999996,4320771.5 L 426145.5,4320782.0 L 426136.5,4320826.0 L 426134.5,4320877.1 L 426127.0,4320899.5 L 426124.5,4320919.5 L 426128.5,4320954.5 L 426131.5,4321003.0 L 426134.0,4321068.5 L 426138.5,4321109.9 L 426144.5,4321124.0 L 426149.0,4321142.5 L 426150.0,4321159.0 L 426147.0,4321171.0 L 426140.5,4321182.0 L 426129.5,4321202.0 L 426115.0,4321236.0 L 426114.5,4321243.0 L 426113.5,4321257.5 L 426118.0,4321284.0 L 426126.5,4321299.0 L 426143.0,4321316.5 L 426190.5,4321370.0 L 426220.0,4321401.5 L 426265.0,4321459.4 L 426285.5,4321490.5 L 426292.5,4321512.0 L 426289.0,4321534.0 L 426286.5,4321545.0 L 426275.5,4321559.0 L 426259.5,4321566.0 L 426238.0,4321569.5 L 426207.5,4321569.0 L 426182.0,4321576.5 L 426162.0,4321590.0 L 426155.0,4321600.5 L 426155.5,4321620.5 L 426159.5,4321633.5 L 426174.5,4321652.0 L 426185.5,4321655.5 L 426207.0,4321658.5 L 426245.0,4321659.5 L 426274.5,4321662.5 L 426293.5999999996,4321669.5 L 426308.0,4321677.0 L 426339.0,4321713.0 L 426365.5,4321747.5 L 426382.5,4321761.0 L 426401.0,4321773.9 L 426417.5,4321781.0 L 426433.0,4321786.0 L 426466.0,4321794.5 L 426499.0,4321797.0 L 426524.0,4321795.0 L 426572.0,4321791.0 L 426606.5,4321782.5 L 426643.5,4321773.0 L 426681.0,4321769.5 L 426692.0,4321769.5 L 426711.5,4321771.5 L 426730.0,4321778.5 L 426746.0,4321788.0 L 426756.5,4321805.5 L 426762.0,4321820.5 L 426765.5,4321838.5 L 426764.5,4321850.5 L 426761.5,4321868.5 L 426750.5,4321888.0 L 426732.0,4321929.0 L 426714.5,4321966.5 L 426704.0,4321987.0 L 426690.5,4322007.0 L 426675.0999999996,4322015.5 L 426648.0,4322028.5 L 426626.5,4322033.0 L 426616.5,4322037.6 L 426599.0,4322040.0 L 426563.0,4322037.0 L 426547.0,4322037.0 L 426529.5,4322041.0 L 426516.0,4322048.5 L 426503.0,4322061.0 L 426495.5,4322079.5 L 426481.5,4322107.5 L 426469.0,4322133.0 L 426460.9000000004,4322160.5 L 426453.5,4322178.0 L 424218.0,4322199.0 L 413398.0,4322306.0 L 412585.2000000002,4322313.710000001 L 412237.9000000004,4322317.0 L 412248.0,4323175.0 L 412257.0,4324018.0 L 412268.5999999996,4324945.0 L 412279.5,4326016.0 L 412292.5,4327362.5 L 412303.0,4329259.5 L 412305.5,4329835.0 L 412312.0,4331136.5 L 412317.0,4331971.0 L 412316.98000000045,4331985.0 L 412414.2000000002,4332039.5 L 412439.7000000002,4332052.4 L 412463.2000000002,4332059.0 L 412485.9000000004,4332056.0 L 412505.4000000004,4332037.0 L 412534.5,4331995.800000001 L 412551.2000000002,4331978.300000001 L 412575.2999999998,4331968.300000001 L 412601.9000000004,4331963.800000001 L 412630.9000000004,4331961.800000001 L 412662.4000000004,4331961.800000001 L 412693.0999999996,4331959.199999999 L 412785.0999999996,4331946.300000001 L 412818.5999999996,4331945.800000001 L 412827.2599999998,4331946.66 L 412804.78000000026,4332917.93 L 413225.53000000026,4332857.82 L 413604.9000000004,4331984.960000001 L 413764.0999999996,4331977.300000001 L 413947.2000000002,4331970.0 L 414055.7999999998,4331964.800000001 L 414090.2000000002,4331962.300000001 L 414124.2999999998,4331956.300000001 L 414353.2999999998,4331877.0 L 414398.7000000002,4331898.0 L 414431.7999999998,4331909.5 L 414456.2999999998,4331913.5 L 414499.0999999996,4331906.0 L 414509.7000000002,4331910.0 L 414518.04000000004,4331918.539999999 L 414518.2400000002,4331918.75 L 414517.2999999998,4331924.800000001 L 414508.4000000004,4331946.800000001 L 414485.0999999996,4331992.300000001 L 414475.7999999998,4332016.300000001 L 414473.7999999998,4332037.800000001 L 414482.5,4332054.800000001 L 414492.7999999998,4332071.300000001 L 414511.0999999996,4332087.300000001 L 414533.7999999998,4332102.5 L 414556.4000000004,4332115.800000001 L 414579.7000000002,4332128.300000001 L 414602.4000000004,4332138.300000001 L 414622.9000000004,4332150.800000001 L 414636.5,4332167.800000001 L 414644.0999999996,4332187.800000001 L 414650.9000000004,4332209.300000001 L 414660.5999999996,4332229.300000001 L 414677.25,4332253.539999999 L 414700.5999999996,4332183.0 L 414756.7999999998,4332071.0 L 414774.0999999996,4332029.699999999 L 414781.0999999996,4332006.5 L 414806.4000000004,4331905.0 L 414810.7999999998,4331897.199999999 L 414818.7999999998,4331893.5 L 414838.7000000002,4331897.5 L 414844.5999999996,4331908.0 L 414854.0999999996,4331984.1 L 414869.5,4332053.5 L 414893.7999999998,4332123.5 L 414898.2999999998,4332155.5 L 414909.0,4332184.9 L 414906.0,4332207.5 L 414903.0,4332240.5 L 414915.7999999998,4332260.0 L 414938.2999999998,4332271.5 L 415011.4000000004,4332262.0 L 415038.7000000002,4332278.0 L 415160.2000000002,4332418.0 L 415192.5999999996,4332486.5 L 415205.4000000004,4332523.5 L 415217.2000000002,4332570.5 L 415230.0,4332594.5 L 415325.7000000002,4332664.1 L 415341.0,4332676.199999999 L 415373.0,4332676.02 L 415384.61000000034,4332672.279999999 L 415413.9500000002,4332679.9 L 415422.51999999955,4332683.470000001 L 415439.01999999955,4332687.5600000005 L 415456.71999999974,4332689.210000001 L 415476.1900000004,4332685.34 L 415496.29000000004,4332682.710000001 L 415515.8200000003,4332684.9399999995 L 415532.9199999999,4332687.82 L 415553.75,4332697.35 L 415599.5599999996,4332706.029999999 L 415613.6699999999,4332715.029999999 L 415630.26999999955,4332728.27 L 415641.38999999966,4332742.17 L 415653.6900000004,4332753.02 L 415666.58999999985,4332762.640000001 L 415679.4900000002,4332770.43 L 415694.88999999966,4332786.74 L 415705.5800000001,4332818.93 L 415709.4400000004,4332837.18 L 415716.86000000034,4332848.08 L 415734.08999999985,4332863.75 L 415743.9500000002,4332874.619999999 L 415754.4900000002,4332890.98 L 415759.61000000034,4332913.49 L 415777.5099999998,4332936.460000001 L 415785.61000000034,4332952.23 L 415798.53000000026,4332964.289999999 L 415811.4000000004,4332971.48 L 415830.4299999997,4332984.07 L 415839.0800000001,4332993.75 L 415852.61000000034,4333005.1899999995 L 415879.1699999999,4333038.4399999995 L 415891.53000000026,4333056.0 L 415905.0800000001,4333068.039999999 L 415926.4400000004,4333072.1 L 415948.3799999999,4333070.039999999 L 415968.5,4333070.449999999 L 415991.6500000004,4333068.98 L 416055.5999999996,4333063.449999999 L 416070.3300000001,4333072.4399999995 L 416101.0599999996,4333095.890000001 L 416123.08999999985,4333104.8100000005 L 416138.3799999999,4333109.539999999 L 416154.9199999999,4333117.289999999 L 416180.6299999999,4333127.380000001 L 416228.20999999996,4333129.949999999 L 416247.75,4333132.779999999 L 416263.51999999955,4333125.3100000005 L 416288.3499999996,4333107.98 L 416310.3499999996,4333114.470000001 L 416332.96999999974,4333119.720000001 L 416357.3099999996,4333115.8100000005 L 416375.45999999996,4333102.210000001 L 416395.3200000003,4333077.01 L 416415.1299999999,4333046.93 L 416419.20999999996,4333029.210000001 L 416446.9900000002,4333003.32 L 416467.01999999955,4332994.57 L 416498.79000000004,4333000.960000001 L 416531.2599999998,4333017.68 L 416546.54000000004,4333020.57 L 416576.5,4333028.8100000005 L 416600.88999999966,4333030.99 L 416616.01999999955,4333018.65 L 416651.98000000045,4332959.140000001 L 416661.66000000015,4332952.32 L 416688.4400000004,4332947.779999999 L 416706.6699999999,4332941.5 L 416723.6299999999,4332930.960000001 L 416742.4500000002,4332923.449999999 L 416774.08999999985,4332917.630000001 L 416823.54000000004,4332924.4399999995 L 416841.8799999999,4332929.130000001 L 416863.16000000015,4332923.42 L 416890.5499999998,4332920.09 L 416903.36000000034,4332920.58 L 416919.9000000004,4332927.720000001 L 416944.21999999974,4332921.98 L 416960.58999999985,4332913.279999999 L 416977.63999999966,4332910.67 L 416996.48000000045,4332905.58 L 417021.9500000002,4332892.52 L 417036.51999999955,4332886.27 L 417052.21999999974,4332871.49 L 417063.6799999997,4332858.5600000005 L 417071.51999999955,4332851.77 L 417087.2599999998,4332841.24 L 417102.4199999999,4332832.5600000005 L 417119.9500000002,4332818.35 L 417135.01999999955,4332801.73 L 417146.5099999998,4332793.09 L 417156.20999999996,4332788.1 L 417164.0499999998,4332779.5 L 417169.3700000001,4332763.58 L 417175.8200000003,4332737.91 L 417206.5999999996,4332708.33 L 417223.0700000003,4332709.380000001 L 417257.7599999998,4332704.140000001 L 417281.46999999974,4332697.800000001 L 417299.58999999985,4332680.550000001 L 417314.4900000002,4332647.470000001 L 417325.33999999985,4332635.779999999 L 417347.8300000001,4332628.84 L 417362.9900000002,4332621.98 L 417374.95999999996,4332600.52 L 417381.5,4332583.380000001 L 417417.8200000003,4332559.220000001 L 417436.6500000004,4332552.93 L 417453.61000000034,4332541.789999999 L 417477.33999999985,4332537.890000001 L 417500.5099999998,4332537.640000001 L 417543.1200000001,4332531.1 L 417561.4000000004,4332530.3100000005 L 417589.95999999996,4332520.869999999 L 417621.3700000001,4332492.51 L 417657.0499999998,4332464.699999999 L 417674.66000000015,4332458.42 L 417708.61000000034,4332439.779999999 L 417713.26999999955,4332418.390000001 L 417713.7400000002,4332405.58 L 417718.5,4332393.949999999 L 417734.79000000004,4332377.33 L 417737.9900000002,4332332.789999999 L 417741.4199999999,4332311.42 L 417748.5700000003,4332294.880000001 L 417760.51999999955,4332272.8100000005 L 417803.0499999998,4332257.74 L 417829.20999999996,4332252.59 L 417837.71999999974,4332249.460000001 L 417859.6699999999,4332250.449999999 L 417869.9900000002,4332246.07 L 417893.5599999996,4332225.720000001 L 417962.08999999985,4332191.48 L 417982.03000000026,4332174.199999999 L 417991.1299999999,4332169.23 L 418018.61000000034,4332173.82 L 418033.28000000026,4332177.9399999995 L 418046.0800000001,4332177.199999999 L 418074.0800000001,4332173.25 L 418119.0,4332155.109999999 L 418161.2999999998,4332118.699999999 L 418183.1299999999,4332106.890000001 L 418220.79000000004,4332094.3100000005 L 418232.78000000026,4332074.07 L 418239.26999999955,4332053.880000001 L 418248.9199999999,4332042.8100000005 L 418270.6699999999,4332023.09 L 418286.4299999997,4332015.6 L 418299.16000000015,4332008.15 L 418329.38999999966,4331984.07 L 418354.8799999999,4331971.609999999 L 418400.4400000004,4331956.5 L 418418.5999999996,4331944.130000001 L 418434.3700000001,4331936.65 L 418455.6500000004,4331931.550000001 L 418463.54000000004,4331926.58 L 418479.3499999996,4331923.380000001 L 418496.4299999997,4331924.43 L 418518.4500000002,4331930.9 L 418543.5599999996,4331942.84 L 418564.9000000004,4331942.619999999 L 418698.75,4331916.85 L 418738.3799999999,4331916.4399999995 L 418754.79000000004,4331911.380000001 L 418784.6299999999,4331909.25 L 418825.53000000026,4331913.710000001 L 418853.58999999985,4331914.640000001 L 418880.38999999966,4331913.75 L 418917.5099999998,4331907.279999999 L 418941.9000000004,4331907.630000001 L 418963.3099999996,4331913.5 L 418980.4900000002,4331924.300000001 L 419005.5099999998,4331927.08 L 419023.1299999999,4331922.039999999 L 419079.75,4331914.130000001 L 419128.2400000002,4331886.8100000005 L 419150.71999999974,4331878.65 L 419172.6699999999,4331879.65 L 419192.8499999996,4331884.92 L 419210.7000000002,4331901.8100000005 L 419219.3499999996,4331913.9 L 419248.1200000001,4331923.970000001 L 419267.1200000001,4331934.140000001 L 419282.5,4331946.779999999 L 419306.9199999999,4331951.41 L 419323.36000000034,4331949.42 L 419343.4299999997,4331944.33 L 419357.38999999966,4331938.699999999 L 419395.9299999997,4331951.720000001 L 419427.2000000002,4331968.460000001 L 419443.86000000034,4331987.800000001 L 419459.23000000045,4332000.4399999995 L 419472.8200000003,4332017.369999999 L 419490.66000000015,4332033.65 L 419523.73000000045,4332047.32 L 419543.8499999996,4332047.109999999 L 419597.45999999996,4332044.119999999 L 419621.29000000004,4332049.98 L 419648.4000000004,4332075.91 L 419666.7400000002,4332081.210000001 L 419693.0,4332086.43 L 419708.9500000002,4332095.41 L 419733.61000000034,4332121.970000001 L 419748.29000000004,4332126.699999999 L 419760.4400000004,4332122.3100000005 L 419776.20999999996,4332114.83 L 419812.1799999997,4332114.460000001 L 419939.3499999996,4332091.1899999995 L 419961.9500000002,4332095.84 L 419974.8099999996,4332101.1899999995 L 420023.8700000001,4332128.73 L 420047.7400000002,4332138.23 L 420065.4000000004,4332136.23 L 420074.5499999998,4332136.74 L 420093.4299999997,4332134.720000001 L 420111.78000000026,4332140.02 L 420130.1500000004,4332148.970000001 L 420151.5800000001,4332157.890000001 L 420176.58999999985,4332158.85 L 420201.6500000004,4332165.300000001 L 420213.8499999996,4332165.18 L 420227.73000000045,4332152.84 L 420258.6299999999,4332133.0 L 420282.3499999996,4332127.279999999 L 420301.88999999966,4332131.960000001 L 420323.9299999997,4332139.640000001 L 420345.36000000034,4332149.8100000005 L 420381.46999999974,4332162.85 L 420432.01999999955,4332157.4399999995 L 420475.7599999998,4332142.960000001 L 420516.78000000026,4332159.609999999 L 420563.75,4332162.18 L 420589.38999999966,4332165.5600000005 L 420597.96999999974,4332170.35 L 420611.0,4332192.17 L 420636.0999999996,4332202.27 L 420676.29000000004,4332197.6 L 420703.78000000026,4332202.18 L 420719.7400000002,4332212.99 L 420738.08999999985,4332218.9 L 420769.8700000001,4332227.710000001 L 420794.9000000004,4332231.109999999 L 420840.1699999999,4332245.890000001 L 420866.5599999996,4332262.67 L 420951.03000000026,4332295.34 L 421004.0800000001,4332296.619999999 L 421027.3200000003,4332303.699999999 L 421039.04000000004,4332316.98 L 421048.9299999997,4332330.3100000005 L 421061.79000000004,4332335.65 L 421072.83999999985,4332342.85 L 421113.83999999985,4332358.289999999 L 421162.1699999999,4332374.24 L 421188.4199999999,4332378.24 L 421203.71999999974,4332383.58 L 421210.91000000015,4332371.3100000005 L 421220.9900000002,4332343.76 L 421226.8300000001,4332318.720000001 L 421232.78000000026,4332305.23 L 421236.79000000004,4332280.210000001 L 421243.33999999985,4332264.890000001 L 421244.45999999996,4332255.73 L 421250.4000000004,4332239.83 L 421251.51999999955,4332230.67 L 421252.8700000001,4332183.710000001 L 421246.1799999997,4332126.470000001 L 421231.23000000045,4332036.4 L 421222.2599999998,4331995.029999999 L 421218.9900000002,4331974.35 L 421218.83999999985,4331958.5 L 421221.0099999998,4331932.859999999 L 421216.13999999966,4331906.58 L 421213.91000000015,4331894.529999999 L 421193.5700000003,4331813.67 L 421179.0099999998,4331761.99 L 421168.48000000045,4331745.640000001 L 421164.0599999996,4331731.67 L 421159.6799999997,4331720.119999999 L 421158.28000000026,4331702.460000001 L 421183.04000000004,4331680.859999999 L 421199.29000000004,4331659.970000001 L 421214.1699999999,4331625.07 L 421221.28000000026,4331605.48 L 421234.86000000034,4331562.050000001 L 421232.8499999996,4331544.4 L 421227.0599999996,4331515.8100000005 L 421220.83999999985,4331502.460000001 L 421216.41000000015,4331486.66 L 421202.41000000015,4331430.699999999 L 421202.33999999985,4331423.390000001 L 421204.04000000004,4331411.800000001 L 421208.13999999966,4331395.300000001 L 421231.1200000001,4331377.380000001 L 421253.0,4331369.83 L 421269.9900000002,4331362.35 L 421282.7000000002,4331353.67 L 421295.95999999996,4331340.119999999 L 421307.28000000026,4331313.18 L 421312.5999999996,4331297.890000001 L 421317.8799999999,4331277.109999999 L 421321.3200000003,4331256.35 L 421321.70999999996,4331235.0 L 421324.5800000001,4331217.91 L 421324.9400000004,4331194.130000001 L 421330.75,4331166.630000001 L 421331.88999999966,4331159.3100000005 L 421395.0999999996,4331140.359999999 L 421426.01999999955,4331123.58 L 421461.5999999996,4331085.41 L 421469.3099999996,4331065.220000001 L 421475.28000000026,4331052.960000001 L 421488.33999999985,4331036.6 L 421496.21999999974,4331032.24 L 421525.4000000004,4331024.630000001 L 421544.7999999998,4331014.68 L 421584.54000000004,4330965.5 L 421621.70999999996,4330905.970000001 L 421646.2000000002,4330855.74 L 421668.41000000015,4330821.98 L 421681.6500000004,4330804.77 L 421691.2000000002,4330785.779999999 L 421690.96999999974,4330763.220000001 L 421692.01999999955,4330746.75 L 421693.20999999996,4330743.68 L 421703.51999999955,4330678.960000001 L 421714.20999999996,4330652.02 L 421742.04000000004,4330631.01 L 421762.5599999996,4330611.300000001 L 421772.78000000026,4330597.16 L 421778.0999999996,4330581.26 L 421784.54000000004,4330556.199999999 L 421803.71999999974,4330523.6899999995 L 421819.4199999999,4330508.890000001 L 421831.4299999997,4330490.48 L 421837.8499999996,4330462.98 L 421838.1200000001,4330430.0600000005 L 421846.1799999997,4330383.640000001 L 421861.63999999966,4330346.3100000005 L 421871.8099999996,4330327.289999999 L 421882.33999999985,4330283.9 L 421885.7999999998,4330264.960000001 L 421894.6699999999,4330179.52 L 421902.3099999996,4330151.390000001 L 421914.75,4330116.52 L 421928.5499999998,4330094.43 L 421936.3200000003,4330079.73 L 421961.4900000002,4330037.4 L 421966.2000000002,4330022.1 L 421970.9900000002,4330012.300000001 L 421989.4299999997,4329968.220000001 L 422034.5599999996,4329851.92 L 422046.38999999966,4329815.84 L 422056.3799999999,4329779.76 L 422084.25,4329703.880000001 L 422091.98000000045,4329685.51 L 422102.13999999966,4329665.279999999 L 422108.03000000026,4329645.109999999 L 422116.3499999996,4329624.289999999 L 422145.6299999999,4329567.289999999 L 422151.61000000034,4329556.869999999 L 422153.95999999996,4329546.48 L 422153.53000000026,4329505.029999999 L 422142.0700000003,4329458.210000001 L 422139.48000000045,4329443.6 L 422134.9000000004,4329413.17 L 422125.5700000003,4329335.220000001 L 422125.6500000004,4329284.619999999 L 422135.25,4329270.5 L 422138.26999999955,4329266.8100000005 L 422158.25,4329253.199999999 L 422177.0700000003,4329245.08 L 422183.0700000003,4329236.48 L 422187.21999999974,4329225.460000001 L 422190.1299999999,4329211.41 L 422195.45999999996,4329196.119999999 L 422203.88999999966,4329185.67 L 422237.8300000001,4329167.640000001 L 422272.4199999999,4329150.8100000005 L 422320.9500000002,4329128.98 L 422345.8099999996,4329114.699999999 L 422360.3099999996,4329101.75 L 422370.51999999955,4329087.02 L 422370.4500000002,4329079.699999999 L 422383.03000000026,4329058.24 L 422398.70999999996,4329041.619999999 L 422411.9900000002,4329029.289999999 L 422419.8700000001,4329024.33 L 422431.36000000034,4329015.67 L 422441.0599999996,4329010.699999999 L 422467.8200000003,4329004.33 L 422488.5099999998,4329001.0600000005 L 422503.6299999999,4328988.720000001 L 422522.2999999998,4328966.58 L 422549.4500000002,4328938.859999999 L 422577.86000000034,4328915.390000001 L 422612.75,4328870.529999999 L 422619.96999999974,4328860.699999999 L 422631.36000000034,4328842.300000001 L 422640.9299999997,4328823.91 L 422648.6299999999,4328801.890000001 L 422663.6799999997,4328724.3100000005 L 422673.2000000002,4328700.4399999995 L 422678.5800000001,4328691.24 L 422699.16000000015,4328677.619999999 L 422718.04000000004,4328675.58 L 422739.9199999999,4328668.65 L 422773.20999999996,4328644.539999999 L 422793.7999999998,4328632.130000001 L 422816.7400000002,4328609.949999999 L 422822.7599999998,4328602.57 L 422837.66000000015,4328570.109999999 L 422846.6500000004,4328554.16 L 422856.2599999998,4328539.42 L 422877.3200000003,4328514.220000001 L 422903.63999999966,4328465.18 L 422909.7000000002,4328457.75 L 422916.7000000002,4328462.5 L 422935.9000000004,4328463.5 L 423141.2000000002,4328464.5 L 423227.5999999996,4328468.0 L 423290.7000000002,4328452.5 L 423329.0,4328456.0 L 423788.2000000002,4328456.5 L 423815.4000000004,4328469.1 L 423858.4000000004,4328477.5 L 423889.5999999996,4328479.800000001 L 424064.7000000002,4328452.49 L 424265.0999999996,4328483.800000001 L 424276.0800000001,4328476.9 L 424701.86000000034,4328570.77 L 425018.0700000003,4328798.35 L 425003.5,4328770.0 L 424993.4000000004,4328728.6 L 424997.7999999998,4328609.699999999 L 424993.0999999996,4328553.6 L 424990.0999999996,4328427.5 L 424991.7000000002,4328397.0 L 425016.9000000004,4328352.800000001 L 425026.0,4328287.5 L 425050.2000000002,4328193.4 L 425053.5999999996,4328161.699999999 L 425046.7000000002,4328074.6 L 425051.9000000004,4328039.800000001 L 425050.9000000004,4327933.699999999 L 425054.2999999998,4327916.0 L 425068.2000000002,4327883.6 L 425059.9000000004,4327852.6 L 425068.7999999998,4327823.800000001 L 425085.7999999998,4327808.4 L 425115.0,4327798.4 L 425135.0,4327791.5 L 425165.2999999998,4327772.4 L 425246.0999999996,4327733.9 L 425347.7000000002,4327644.5 L 425370.5999999996,4327613.300000001 L 425389.9000000004,4327523.5 L 425401.7999999998,4327498.4 L 425420.5999999996,4327478.1 L 425478.7000000002,4327437.300000001 L 425500.4000000004,4327409.699999999 L 425507.2999999998,4327293.199999999 L 425530.2000000002,4327267.4 L 425568.5,4327254.800000001 L 425690.2000000002,4327227.5 L 425708.5,4327229.199999999 L 425722.0,4327236.4 L 425752.0999999996,4327262.4 L 425787.0,4327280.300000001 L 425881.5,4327276.4 L 425947.9000000004,4327269.1 L 425989.4000000004,4327274.300000001 L 426053.5,4327292.6 L 426080.4000000004,4327298.300000001 L 426092.0,4327295.300000001 L 426131.4000000004,4327277.300000001 L 426150.0999999996,4327247.199999999 L 426163.7999999998,4327213.0 L 426194.5999999996,4327177.300000001 L 426258.7999999998,4327132.199999999 L 426307.2999999998,4327102.0 L 426342.4000000004,4327071.800000001 L 426359.9000000004,4327058.800000001 L 426406.0999999996,4327043.800000001 L 426455.2999999998,4327017.699999999 L 426467.9000000004,4327001.1 L 426481.5,4326949.199999999 L 426497.5,4326899.1 L 426519.9000000004,4326878.1 L 426545.2999999998,4326863.300000001 L 426614.0999999996,4326845.6 L 426653.0,4326837.300000001 L 426658.4000000004,4326830.6 L 426653.7999999998,4326789.1 L 426657.2000000002,4326755.6 L 426676.2999999998,4326715.199999999 L 426704.2000000002,4326702.1 L 426752.9000000004,4326694.4 L 426807.9000000004,4326706.699999999 L 426851.7999999998,4326702.699999999 L 426876.5,4326678.0 L 426877.5999999996,4326591.5 L 426891.7999999998,4326541.300000001 L 426940.9000000004,4326513.6 L 426962.0,4326482.800000001 L 426957.4000000004,4326452.300000001 L 426882.2000000002,4326354.9 L 426867.5,4326282.5 L 426876.7000000002,4326214.699999999 L 426886.2000000002,4326187.800000001 L 426913.9000000004,4326152.199999999 L 426936.4000000004,4326144.1 L 426979.7999999998,4326155.9 L 427001.2999999998,4326172.199999999 L 427012.5,4326201.300000001 L 427028.2000000002,4326257.199999999 L 427060.7999999998,4326294.800000001 L 427114.9000000004,4326333.9 L 427224.5,4326384.1 L 427304.5,4326407.800000001 L 427332.5999999996,4326408.199999999 L 427355.5,4326385.300000001 L 427363.2000000002,4326350.6 L 427331.0,4326297.800000001 L 427297.2999999998,4326275.6 L 427255.7000000002,4326268.0 L 427235.7000000002,4326262.699999999 L 427228.0999999996,4326242.6 L 427225.5,4326220.1 L 427244.7000000002,4326192.5 L 427268.2999999998,4326172.199999999 L 427369.7999999998,4326143.300000001 L 427408.7000000002,4326129.5 L 427436.5999999996,4326112.800000001 L 427460.9000000004,4326094.300000001 L 427486.4000000004,4326092.800000001 L 427500.0,4326103.699999999 L 427511.7000000002,4326126.800000001 L 427512.5999999996,4326149.300000001 L 427506.7000000002,4326178.699999999 L 427491.0,4326200.1 L 427474.2000000002,4326218.5 L 427467.5999999996,4326238.699999999 L 427470.2000000002,4326256.4 L 427479.5,4326270.9 L 427512.5,4326284.6 L 427534.5,4326289.199999999 L 427567.4000000004,4326284.199999999 L 427599.7000000002,4326276.5 L 427628.0,4326239.699999999 L 427631.0999999996,4326182.4 L 427622.5,4326103.800000001 L 427630.2999999998,4326087.9 L 427649.2000000002,4326081.6 L 427691.7999999998,4326087.4 L 427718.7000000002,4326087.699999999 L 427730.5999999996,4326074.199999999 L 427733.5,4326055.9 L 427728.0,4326037.0 L 427706.4000000004,4326016.5 L 427647.5999999996,4325989.6 L 427587.4000000004,4325931.0 L 427524.4000000004,4325842.6 L 427505.2000000002,4325809.199999999 L 427487.5999999996,4325800.800000001 L 427471.0,4325800.300000001 L 427451.5999999996,4325811.5 L 427424.2999999998,4325830.0 L 427400.5999999996,4325838.199999999 L 427372.4000000004,4325830.5 L 427343.7000000002,4325811.199999999 L 427321.5999999996,4325781.6 L 427309.0,4325751.199999999 L 427284.0,4325679.5 L 427279.0,4325668.6 L 427280.7999999998,4325598.4 L 427292.2999999998,4325510.5 L 427274.5,4325438.109999999 L 427303.7000000002,4325435.0 L 427339.4000000004,4325431.199999999 L 427471.0,4325430.300000001 L 427495.7999999998,4325431.9 L 427511.5,4325437.699999999 L 427526.2999999998,4325445.800000001 L 427537.5,4325455.0 L 427545.7000000002,4325465.800000001 L 427564.0999999996,4325506.1 L 427576.2000000002,4325527.199999999 L 427604.4000000004,4325571.800000001 L 427618.7999999998,4325596.9 L 427627.9000000004,4325617.6 L 427638.7999999998,4325636.699999999 L 427645.7000000002,4325641.6 L 427650.7000000002,4325645.199999999 L 427661.5,4325646.4 L 427664.2999999998,4325646.1 L 428263.3300000001,4325723.640000001 L 428991.2000000002,4325641.4 L 428991.2000000002,4325470.5 z" /></g></svg>