<svg xmlns="http://www.w3.org/2000/svg" xmlns:xlink="http://www.w3.org/1999/xlink" width="300" height="300" viewBox="409083.62879999983 4487156.5088 8536.622400000226 5862.862399999052" preserveAspectRatio="xMinYMin meet"><g transform="matrix(1,0,0,-1,0,8980175.879999999)"><path fill-rule="evenodd" fill="#66cc99" stroke="#555555" stroke-width="56.9108160000015" opacity="0.6" d="M 417304.0800000001,4492637.51 L 417300.48000000045,4492356.91 L 417291.0499999998,4491847.65 L 417283.4299999997,4491022.380000001 L 417287.8200000003,4490878.199999999 L 417284.01999999955,4490586.0 L 417282.01999999955,4490364.85 L 417282.1200000001,4490122.050000001 L 417281.1200000001,4490002.949999999 L 417273.21999999974,4489880.85 L 417249.6200000001,4489768.25 L 417199.6200000001,4489632.050000001 L 417131.4199999999,4489511.050000001 L 417087.8200000003,4489452.550000001 L 417009.1200000001,4489354.65 L 416883.3200000003,4489202.25 L 416814.51999999955,4489114.15 L 416764.8200000003,4489033.85 L 416729.1200000001,4488963.550000001 L 416702.8200000003,4488896.949999999 L 416680.71999999974,4488815.949999999 L 416667.4199999999,4488741.949999999 L 416662.9199999999,4488698.85 L 416659.3200000003,4488626.199999999 L 416651.01999999955,4487842.550000001 L 416650.76999999955,4487816.199999999 L 416642.04000000004,4487816.32 L 416474.0,4487818.6 L 416429.5999999996,4487767.970000001 L 416424.4000000004,4487513.68 L 416405.8700000001,4487513.68 L 416390.0,4487511.699999999 L 416375.4299999997,4487502.82 L 416367.6500000004,4487503.26 L 416355.4500000002,4487502.17 L 416349.96999999974,4487502.85 L 416341.5499999998,4487501.49 L 416294.75,4487502.4399999995 L 416272.9199999999,4487505.75 L 416251.08999999985,4487505.09 L 416221.9900000002,4487502.4399999995 L 416190.2400000002,4487505.75 L 416165.0999999996,4487505.09 L 416145.2599999998,4487503.1 L 416134.01999999955,4487499.130000001 L 416118.7999999998,4487491.859999999 L 416092.33999999985,4487483.26 L 416078.4500000002,4487476.8100000005 L 416073.8200000003,4487474.66 L 416057.9500000002,4487472.68 L 416052.51999999955,4487474.08 L 416048.4400000004,4487675.130000001 L 415936.58999999985,4487826.91 L 415894.2999999998,4487828.0 L 415713.5,4487829.0 L 415443.4000000004,4487837.199999999 L 415266.9000000004,4487838.199999999 L 414855.5,4487840.699999999 L 414538.5,4487844.5 L 414332.3300000001,4487847.09 L 414250.8300000001,4487848.109999999 L 413686.2000000002,4487855.210000001 L 413527.8200000003,4487857.199999999 L 413098.9000000004,4487862.6 L 412850.0,4487865.6 L 412718.0,4487867.4 L 412638.0999999996,4487872.699999999 L 412538.2000000002,4487872.9 L 412518.7000000002,4487872.800000001 L 412360.9000000004,4487873.199999999 L 412170.7000000002,4487875.9 L 411412.0999999996,4487883.0 L 411120.9000000004,4487887.9 L 411013.2999999998,4487888.4 L 410004.5999999996,4487904.1 L 409522.7000000002,4487910.6 L 409502.2000000002,4487915.6 L 409481.2000000002,4487923.1 L 409460.7000000002,4487935.300000001 L 409399.7999999998,4487988.0 L 409401.28000000026,4487990.01 L 409407.0999999996,4487997.9 L 409420.7999999998,4488018.699999999 L 409433.4000000004,4488040.0 L 409444.7999999998,4488061.9 L 409455.0999999996,4488084.5 L 409977.0,4489402.5 L 410011.5,4489490.300000001 L 410021.9000000004,4489524.800000001 L 410033.5999999996,4489549.1 L 410058.2999999998,4489606.5 L 410070.0,4489643.699999999 L 410077.7999999998,4489673.0 L 410081.9000000004,4489702.4 L 410091.0,4489735.800000001 L 410093.7999999998,4489768.9 L 410100.5,4489804.9 L 410103.0999999996,4489839.199999999 L 410102.0,4489865.0 L 410102.2000000002,4489894.300000001 L 410103.7000000002,4489931.4 L 410100.0,4489960.9 L 410098.9000000004,4489995.4 L 410095.2999999998,4490027.4 L 410088.2999999998,4490059.5 L 410087.5999999996,4490122.699999999 L 410084.5,4490186.0 L 410082.2000000002,4490217.6 L 410075.7999999998,4490280.5 L 410048.7000000002,4490475.1 L 410035.5,4490567.1 L 410020.48000000045,4490663.710000001 L 409995.9000000004,4490821.800000001 L 409985.0999999996,4490900.0 L 409979.4000000004,4490958.1 L 409975.9000000004,4491016.4 L 409974.2999999998,4491074.6 L 409974.5999999996,4491122.1 L 410941.91000000015,4491235.880000001 L 411935.0,4491103.6 L 412304.2999999998,4491099.5 L 412402.16000000015,4491008.779999999 L 412164.2400000002,4490562.359999999 L 412095.6699999999,4490367.74 L 412127.7400000002,4490398.4399999995 L 412140.66000000015,4490408.039999999 L 412156.58999999985,4490415.17 L 412179.33999999985,4490430.74 L 412199.5599999996,4490439.640000001 L 412225.86000000034,4490446.640000001 L 412236.8799999999,4490450.16 L 412278.36000000034,4490452.710000001 L 412289.3799999999,4490456.25 L 412319.5099999998,4490477.82 L 412359.8099999996,4490482.82 L 412381.0800000001,4490477.08 L 412396.95999999996,4490479.9399999995 L 412408.5700000003,4490481.640000001 L 412416.5700000003,4490487.029999999 L 412435.5800000001,4490496.539999999 L 412466.29000000004,4490516.289999999 L 412494.0099999998,4490540.34 L 412504.4299999997,4490544.48 L 412519.08999999985,4490546.140000001 L 412544.63999999966,4490541.57 L 412564.1699999999,4490543.77 L 412583.75,4490550.23 L 412636.61000000034,4490585.57 L 412653.7599999998,4490592.08 L 412660.5700000003,4490601.140000001 L 412666.13999999966,4490608.380000001 L 412690.1200000001,4490625.17 L 412696.9900000002,4490637.890000001 L 412717.4199999999,4490663.25 L 412741.3300000001,4490675.15 L 412764.5800000001,4490682.1899999995 L 412797.51999999955,4490684.23 L 412804.8499999996,4490685.359999999 L 412819.61000000034,4490695.550000001 L 412833.70999999996,4490702.08 L 412844.0800000001,4490703.18 L 412881.26999999955,4490702.74 L 412904.4400000004,4490703.67 L 412939.20999999996,4490704.48 L 412961.1500000004,4490704.210000001 L 412987.8099999996,4490691.09 L 413003.5800000001,4490684.199999999 L 413040.04000000004,4490673.99 L 413063.13999999966,4490668.85 L 413082.6799999997,4490671.65 L 413102.8700000001,4490677.5 L 413121.1500000004,4490676.07 L 413143.5999999996,4490667.27 L 413159.3300000001,4490657.93 L 413170.8700000001,4490654.140000001 L 413183.08999999985,4490656.43 L 413197.2000000002,4490663.58 L 413215.0,4490673.109999999 L 413241.70999999996,4490848.18 L 413265.5700000003,4490847.15 L 413280.88999999966,4490728.41 L 413293.71999999974,4490730.6899999995 L 413308.45999999996,4490739.039999999 L 413315.25,4490746.27 L 413334.86000000034,4490754.58 L 413351.36000000034,4490758.029999999 L 413367.9900000002,4490771.85 L 413386.08999999985,4490807.01 L 413391.08999999985,4490817.300000001 L 413393.73000000045,4490834.34 L 413404.8200000003,4490843.359999999 L 413444.16000000015,4490870.3100000005 L 413460.28000000026,4490892.68 L 413476.8799999999,4490904.66 L 413493.45999999996,4490914.23 L 413509.96999999974,4490918.300000001 L 413539.8300000001,4490917.32 L 413565.38999999966,4490913.359999999 L 413576.9900000002,4490913.82 L 413590.4500000002,4490919.15 L 413610.0,4490922.58 L 413641.0099999998,4490914.880000001 L 413660.5599999996,4490918.93 L 413670.88999999966,4490915.75 L 413679.4299999997,4490916.27 L 413692.2999999998,4490922.210000001 L 413702.7999999998,4490933.65 L 413711.53000000026,4490950.01 L 413785.51999999955,4491018.619999999 L 413804.6699999999,4491039.74 L 413811.4500000002,4491045.75 L 413820.01999999955,4491048.6899999995 L 413831.6699999999,4491053.42 L 413839.0700000003,4491061.26 L 413842.2000000002,4491067.93 L 413852.79000000004,4491086.1 L 413865.1299999999,4491099.35 L 413882.28000000026,4491105.85 L 413893.86000000034,4491105.720000001 L 413903.03000000026,4491107.43 L 413912.83999999985,4491111.58 L 413928.7999999998,4491121.15 L 413937.4400000004,4491129.57 L 413948.0,4491146.529999999 L 413954.8300000001,4491156.800000001 L 413981.9500000002,4491180.859999999 L 413988.8700000001,4491199.0600000005 L 413999.4299999997,4491215.41 L 414013.48000000045,4491217.67 L 414031.21999999974,4491222.33 L 414041.0599999996,4491229.539999999 L 414046.66000000015,4491238.0 L 414059.1900000004,4491265.9 L 414064.78000000026,4491272.59 L 414072.79000000004,4491282.18 L 414080.88999999966,4491296.720000001 L 414083.51999999955,4491313.16 L 414092.73000000045,4491318.52 L 414105.5599999996,4491319.59 L 414113.4500000002,4491317.66 L 414124.4400000004,4491319.369999999 L 414133.0999999996,4491329.02 L 414141.8099999996,4491344.15 L 414152.28000000026,4491352.550000001 L 414181.0599999996,4491363.18 L 414200.6799999997,4491372.09 L 414211.16000000015,4491382.34 L 414113.6299999999,4491540.4 L 414117.0999999996,4491886.4 L 414216.98000000045,4492258.26 L 414875.4500000002,4492650.91 L 414932.5,4492653.6 L 414979.86000000034,4492677.9399999995 L 415021.9000000004,4492653.300000001 L 415060.95999999996,4492677.9399999995 L 415091.4000000004,4492652.300000001 L 415130.8700000001,4492676.529999999 L 415176.9000000004,4492650.199999999 L 415218.5099999998,4492674.76 L 415259.5,4492648.6 L 415296.5999999996,4492661.57 L 415340.7000000002,4492647.800000001 L 415376.23000000045,4492658.18 L 415411.0,4492646.5 L 415453.3300000001,4492656.890000001 L 415495.0,4492645.5 L 415544.91000000015,4492664.68 L 415595.5,4492643.300000001 L 415681.0599999996,4492681.75 L 416012.0,4492677.0 L 416458.63999999966,4492675.539999999 L 416519.9000000004,4492628.6 L 416881.0,4492703.199999999 L 416970.5099999998,4492675.51 L 417060.2000000002,4492702.9 L 417304.0800000001,4492637.51 z" /></g></svg>